<svg width="92" height="92" viewBox="0 0 92 92" fill="none" xmlns="http://www.w3.org/2000/svg">
<rect x="0.5" y="0.5" width="91" height="91" rx="45.5" fill="url(#paint0_angular)"/>
<path d="M79.75 46.825C79.75 26.2375 63.775 12.25 46 12.25C28.4124 12.25 12.2499 25.9375 12.2499 47.05C9.99994 48.325 8.49994 50.725 8.49994 53.5V61C8.49994 65.125 11.8749 68.5 15.9999 68.5H19.7499L19.7499 45.625C19.7499 31.1125 31.4874 19.375 46 19.375C60.5125 19.375 72.25 31.1125 72.25 45.625V72.25H42.25V79.75H72.25C76.375 79.75 79.75 76.375 79.75 72.25V67.675C81.9625 66.5125 83.5 64.225 83.5 61.525V52.9C83.5 50.275 81.9625 47.9875 79.75 46.825Z" fill="white"/>
<path d="M34.75 53.5C36.821 53.5 38.5 51.8211 38.5 49.75C38.5 47.6789 36.821 46 34.75 46C32.6789 46 30.9999 47.6789 30.9999 49.75C30.9999 51.8211 32.6789 53.5 34.75 53.5Z" fill="white"/>
<path d="M57.25 53.5C59.3211 53.5 61 51.8211 61 49.75C61 47.6789 59.3211 46 57.25 46C55.1789 46 53.5 47.6789 53.5 49.75C53.5 51.8211 55.1789 53.5 57.25 53.5Z" fill="white"/>
<path d="M68.5 42.3625C67.6058 37.0905 64.8753 32.3049 60.7917 28.8527C56.7081 25.4005 51.5348 23.5044 46.1875 23.5C34.825 23.5 22.6 32.9125 23.575 47.6875C28.1993 45.7952 32.2834 42.7881 35.4634 38.9342C38.6433 35.0803 40.8202 30.4994 41.8 25.6C46.7125 35.4625 56.8 42.25 68.5 42.3625Z" fill="white"/>
<rect x="0.5" y="0.5" width="91" height="91" rx="45.5" stroke="white"/>
<defs>
<radialGradient id="paint0_angular" cx="0" cy="0" r="1" gradientUnits="userSpaceOnUse" gradientTransform="translate(41.7368 66.4545) rotate(80.1469) scale(24.9129 32.8894)">
<stop offset="0.189236" stop-color="#FDF5A6"/>
<stop offset="0.502742" stop-color="#B88746"/>
</radialGradient>
</defs>
</svg>
