<svg width="1375" height="321" viewBox="0 0 1375 321" fill="none" xmlns="http://www.w3.org/2000/svg">
<path d="M99.9833 65.3771C99.9833 73.9771 88.8708 78.1063 82.9875 68.1187L73.3 51.4354V65.3771C73.3 73.9771 62.1917 78.1063 56.3125 68.1187C53.0788 62.5595 49.8483 56.9983 46.6208 51.4354V64.5812C46.6208 70.5479 43.0792 73.7771 37.5417 73.7771H23.0417C16.9306 73.7771 11.0699 71.3495 6.74875 67.0283C2.4276 62.7072 0 56.8464 0 50.7354C0 44.6243 2.4276 38.7636 6.74875 34.4424C11.0699 30.1213 16.9306 27.6937 23.0417 27.6937H30.5167V33.2354H23.0417C20.72 33.1995 18.4144 33.6259 16.259 34.4896C14.1037 35.3533 12.1417 36.6371 10.4872 38.2662C8.83269 39.8954 7.51879 41.8374 6.62195 43.9791C5.72511 46.1209 5.26325 48.4197 5.26325 50.7416C5.26325 53.0636 5.72511 55.3624 6.62195 57.5041C7.51879 59.6459 8.83269 61.5879 10.4872 63.217C12.1417 64.8462 14.1037 66.13 16.259 66.9937C18.4144 67.8574 20.72 68.2837 23.0417 68.2479H37.4167C38.3813 68.2288 39.3012 67.8373 39.9838 67.1555C40.6664 66.4736 41.0589 65.5542 41.0792 64.5896V36.2562C41.066 36.0038 41.1381 35.7544 41.284 35.548C41.4299 35.3417 41.641 35.1904 41.8833 35.1187C42.4708 34.9604 43.0917 35.3229 43.5458 36.0895L52.5125 51.5437L61.1917 66.4979C62.3583 68.4729 64.1042 68.8187 65.3458 68.4771C66.0572 68.278 66.6818 67.8475 67.121 67.2536C67.5602 66.6597 67.7889 65.9363 67.7708 65.1979V36.2562C67.7562 36.0042 67.8267 35.7546 67.971 35.5475C68.1154 35.3405 68.3252 35.188 68.5667 35.1145C69.15 34.9562 69.7625 35.3187 70.2125 36.0854L78.525 50.4062L87.8667 66.5104C88.7792 68.0562 90.05 68.6062 91.1583 68.6062C91.4484 68.6063 91.7371 68.5671 92.0167 68.4896C92.7356 68.295 93.3685 67.8649 93.8141 67.2682C94.2598 66.6714 94.4925 65.9425 94.475 65.1979V27.6979H100L99.9833 65.3771ZM33.3458 58.9437V36.0937C33.3458 27.4937 44.4583 23.3645 50.3375 33.3562C50.7667 34.077 60.0292 50.0312 60.0292 50.0312V36.0937C60.0292 27.4937 71.1375 23.3645 77.0167 33.3562C77.4458 34.077 86.7042 50.0312 86.7042 50.0312V27.6979H92.25V65.1979C92.2639 65.4515 92.1916 65.7024 92.0449 65.9096C91.8981 66.1169 91.6855 66.2685 91.4417 66.3396C90.8583 66.4979 90.2333 66.1354 89.7833 65.3646C86.6634 60.0058 83.5523 54.6419 80.45 49.2729L72.1375 34.9645C70.9708 32.9895 69.2375 32.6437 68.0042 32.977C67.2927 33.1756 66.6675 33.6052 66.227 34.1981C65.7865 34.791 65.5556 35.5136 65.5708 36.252V65.1937C65.5845 65.4472 65.5126 65.6979 65.3668 65.9057C65.221 66.1134 65.0097 66.2662 64.7667 66.3396C64.1708 66.4979 63.5542 66.1354 63.1042 65.3646C63.0208 65.2312 58.65 57.6979 54.425 50.4104C51.4351 45.2566 48.4434 40.1038 45.45 34.952C44.2875 32.9687 42.5458 32.627 41.3042 32.9604C40.5923 33.1588 39.9666 33.5882 39.5254 34.181C39.0842 34.7739 38.8524 35.4965 38.8667 36.2354V64.5687C38.8429 64.9462 38.682 65.302 38.4142 65.5691C38.1463 65.8362 37.7901 65.9961 37.4125 66.0187H23.0292C18.9719 66.0187 15.0808 64.407 12.2119 61.5381C9.34299 58.6692 7.73125 54.7781 7.73125 50.7208C7.73125 46.6635 9.34299 42.7724 12.2119 39.9035C15.0808 37.0346 18.9719 35.4229 23.0292 35.4229H30.5083V40.9562H23.0917C20.5019 40.9562 18.0183 41.985 16.1871 43.8162C14.3558 45.6474 13.3271 48.1311 13.3271 50.7208C13.3271 53.3105 14.3558 55.7942 16.1871 57.6254C18.0183 59.4566 20.5019 60.4854 23.0917 60.4854H31.8167C32.019 60.4871 32.2196 60.4483 32.4068 60.3713C32.5939 60.2942 32.7637 60.1805 32.9062 60.0369C33.0487 59.8932 33.161 59.7225 33.2365 59.5347C33.312 59.347 33.3492 59.1461 33.3458 58.9437Z" fill="white"/>
<path d="M287.183 214.902C287.183 218.002 283.329 217.819 283.329 217.819H279.475V212.223H283.329C287.296 212.194 287.183 214.906 287.183 214.906V214.902ZM279.475 203.685H282.408C285.458 203.852 285.346 206.119 285.346 206.119C285.346 208.94 281.971 208.985 281.971 208.985H279.471L279.475 203.685ZM286.471 210.085C286.471 210.085 289.108 208.96 289.083 205.981C289.083 205.981 289.483 201.094 283.008 200.498H275.825V220.985H284.062C284.062 220.985 290.937 221.002 290.937 215.202C290.937 215.202 291.104 211.256 286.471 210.085ZM267.875 196.485H298.117V224.985H267.879L267.875 196.485ZM252.304 214.902C252.304 218.002 248.45 217.819 248.45 217.819H244.596V212.223H248.45C252.417 212.194 252.304 214.906 252.304 214.906V214.902ZM244.596 203.685H247.533C250.583 203.852 250.467 206.119 250.467 206.119C250.467 208.94 247.092 208.985 247.092 208.985H244.596V203.685ZM251.592 210.085C251.592 210.085 254.229 208.96 254.204 205.981C254.204 205.981 254.608 201.094 248.133 200.498H240.95V220.985H249.183C249.183 220.985 256.062 221.002 256.062 215.202C256.062 215.202 256.229 211.256 251.592 210.085ZM233 196.485H263.246V224.985H233V196.485ZM326.833 201.969V205.752C326.833 205.752 323.137 203.481 319.054 203.435C319.054 203.435 311.438 203.285 311.096 210.735C311.096 210.735 310.821 217.59 318.963 217.977C318.963 217.977 322.379 218.39 327.012 215.435V219.352C327.012 219.352 320.796 223.048 313.596 220.202C313.596 220.202 307.537 217.994 307.308 210.735C307.308 210.735 307.058 203.277 315.133 200.798C315.133 200.798 317.287 199.973 321.162 200.34C321.162 200.34 323.479 200.569 326.829 201.965L326.833 201.969ZM302.754 224.985H333V196.485H302.754V224.985Z" fill="white"/>
<path d="M520.779 57.6354C520.779 63.5645 516.892 67.8603 509.017 68.7812C503.392 69.3937 495.112 68.677 491.125 68.1645C491.021 67.552 490.817 66.7353 490.817 66.1228C490.817 60.9062 493.579 59.7812 496.233 59.7812C499 59.7812 503.292 60.2937 506.462 60.2937C509.938 60.2937 511.062 59.0645 511.062 57.9395C511.062 56.4062 509.633 55.7937 506.871 55.2812L499.508 53.852C493.271 52.6228 490 48.3312 490 43.8312C490 38.3104 493.888 33.6062 501.658 32.7895C507.483 32.1728 514.642 32.8895 518.529 33.2979C518.629 34.0145 518.733 34.6312 518.733 35.3437C518.733 40.5603 515.971 41.6854 513.417 41.6854C511.371 41.6854 508.304 41.2729 504.725 41.2729C501.042 41.2729 499.612 42.2978 499.612 43.5229C499.612 44.8562 501.042 45.3645 503.292 45.7729L510.45 47.1062C517.708 48.3312 520.779 52.5229 520.779 57.6354ZM533.662 63.9729C533.662 67.1437 532.433 68.9853 526.196 68.9853C525.379 68.9853 524.662 68.8812 523.946 68.777V26.652C523.946 23.4854 525.071 20.1104 531.308 20.1104C532.125 20.1104 532.946 20.2104 533.662 20.3145V63.9729ZM559.017 80.3354C559.837 80.7437 561.475 81.252 563.621 81.3562C567.2 81.4604 569.142 80.027 570.675 76.8562L590 33.7062C588.744 33.14 587.389 32.8285 586.012 32.7895C583.558 32.7895 580.183 33.2978 578.037 38.3103L571.8 53.0354L559.529 32.9937C558.713 32.7854 556.771 32.377 555.337 32.377C551.046 32.377 548.587 34.0145 546.033 36.6728L534.071 49.7603L543.679 64.8937C545.421 67.6562 547.771 69.0854 551.554 69.0854C554.008 69.0854 556.154 68.4729 557.075 68.0645L545.521 50.5812L553.7 41.8895L567.2 63.0562L559.017 80.3354Z" fill="white"/>
<path d="M711 192.669V201.931H721.125V228.802H732.25V201.927H742.375V192.673L711 192.669ZM744.104 192.669V228.802H774.562V219.539H755.237V215.039H774.558V206.431H755.237V201.931H774.558V192.669H744.104ZM776.433 192.669V228.802H792.529C805.129 228.802 811 221.769 811 210.681C811 201.577 806.746 192.669 794.7 192.669H776.433ZM787.567 201.931H791.108C799.154 201.931 799.867 208.256 799.867 210.527C799.867 213.923 798.854 219.539 791.921 219.539H787.567V201.931Z" fill="white"/>
<path d="M1049.15 18.4553L1032.32 56.2586H1051.13L1068 18.4553H1049.15ZM980 37.3386L998.883 79.7253L992.1 95.0153H1008.71L1033.86 37.3386H1017.36L1007.1 62.0153L996.94 37.3386H980ZM1037.27 59.9253C1031.15 59.9253 1026.6 64.5086 1026.6 69.8619C1026.6 75.0686 1031 79.4319 1036.83 79.4319C1042.99 79.4319 1047.58 74.9219 1047.58 69.5686C1047.58 64.1786 1043.18 59.9253 1037.27 59.9253Z" fill="white"/>
<g clip-path="url(#clip0)">
<path d="M1253.31 170.735H1203.69C1201.76 170.735 1199.85 171.115 1198.07 171.853C1196.29 172.591 1194.67 173.674 1193.3 175.038C1191.94 176.403 1190.86 178.023 1190.12 179.806C1189.38 181.589 1189 183.5 1189 185.429V235.045C1189 236.974 1189.38 238.885 1190.12 240.667C1190.86 242.45 1191.94 244.07 1193.3 245.434C1194.67 246.798 1196.29 247.88 1198.07 248.618C1199.85 249.356 1201.76 249.736 1203.69 249.735H1253.31C1255.24 249.735 1257.15 249.355 1258.93 248.617C1260.71 247.878 1262.33 246.796 1263.7 245.431C1265.06 244.067 1266.14 242.447 1266.88 240.664C1267.62 238.882 1268 236.971 1268 235.041V185.429C1268 183.5 1267.62 181.589 1266.88 179.806C1266.14 178.023 1265.06 176.403 1263.7 175.038C1262.33 173.674 1260.71 172.591 1258.93 171.853C1257.15 171.115 1255.24 170.735 1253.31 170.735ZM1257.23 192.108V204.85L1254.2 204.834C1252.53 204.824 1250.97 204.765 1250.74 204.699C1250.31 204.58 1250.3 204.534 1250.1 201.937C1249.84 198.603 1249.63 197.125 1249.1 194.906C1247.94 190.11 1245.49 187.5 1241.5 186.799C1239.82 186.506 1232.51 186.219 1226.49 186.216L1222.34 186.206V205.364L1224.52 205.255C1227.02 205.13 1228.98 204.83 1229.92 204.426C1230.93 203.994 1231.99 202.905 1232.49 201.796C1233.01 200.637 1233.36 199.113 1233.63 196.72C1233.74 195.778 1233.86 194.837 1233.9 194.626C1233.98 194.244 1233.99 194.241 1237.31 194.241H1240.64V224.854H1233.86L1233.74 223.089C1233.53 219.893 1232.91 216.865 1232.16 215.416C1231.14 213.438 1229.13 212.549 1225.08 212.289C1224.35 212.246 1223.62 212.181 1222.89 212.095L1222.32 212.006L1222.39 221.638C1222.46 231.796 1222.49 232.191 1223.26 233.043C1224.06 233.919 1224.52 233.978 1232.57 234.255C1232.73 234.261 1232.78 235.064 1232.78 237.681V241.101H1199.77V237.681C1199.77 234.541 1199.79 234.261 1200.07 234.255C1200.23 234.251 1201.85 234.179 1203.68 234.093C1206.61 233.955 1207.08 233.893 1207.77 233.544C1208.26 233.325 1208.66 232.944 1208.91 232.464C1209.26 231.786 1209.26 231.628 1209.26 210.146C1209.26 189.959 1209.24 188.474 1208.96 187.971C1208.57 187.274 1207.91 186.759 1207.14 186.535C1206.8 186.43 1205 186.305 1203.14 186.252L1199.77 186.163V179.366H1257.23V192.108Z" fill="white"/>
</g>
<defs>
<clipPath id="clip0">
<rect width="79" height="79" fill="white" transform="translate(1189 170.735)"/>
</clipPath>
</defs>
</svg>
