<svg width="147" height="17" viewBox="0 0 147 17" fill="none" xmlns="http://www.w3.org/2000/svg">
<path d="M54.7084 2.75C56.1781 2.75 57.5877 3.33385 58.6269 4.37312C59.6662 5.41238 60.2501 6.82193 60.2501 8.29167C60.2501 9.76141 59.6662 11.171 58.6269 12.2102C57.5877 13.2495 56.1781 13.8333 54.7084 13.8333C53.2386 13.8333 51.8291 13.2495 50.7898 12.2102C49.7506 11.171 49.1667 9.76141 49.1667 8.29167C49.1667 6.82193 49.7506 5.41238 50.7898 4.37312C51.8291 3.33385 53.2386 2.75 54.7084 2.75ZM54.7084 3.33333C53.3934 3.33333 52.1322 3.85573 51.2023 4.7856C50.2724 5.71546 49.7501 6.97663 49.7501 8.29167C49.7501 9.6067 50.2724 10.8679 51.2023 11.7977C52.1322 12.7276 53.3934 13.25 54.7084 13.25C56.0234 13.25 57.2846 12.7276 58.2145 11.7977C59.1443 10.8679 59.6667 9.6067 59.6667 8.29167C59.6667 6.97663 59.1443 5.71546 58.2145 4.7856C57.2846 3.85573 56.0234 3.33333 54.7084 3.33333Z" fill="white"/>
<path d="M99.7084 2.75C101.178 2.75 102.588 3.33385 103.627 4.37312C104.666 5.41238 105.25 6.82193 105.25 8.29167C105.25 9.76141 104.666 11.171 103.627 12.2102C102.588 13.2495 101.178 13.8333 99.7084 13.8333C98.2386 13.8333 96.8291 13.2495 95.7898 12.2102C94.7506 11.171 94.1667 9.76141 94.1667 8.29167C94.1667 6.82193 94.7506 5.41238 95.7898 4.37312C96.8291 3.33385 98.2386 2.75 99.7084 2.75ZM99.7084 3.33333C98.3934 3.33333 97.1322 3.85573 96.2023 4.7856C95.2724 5.71546 94.7501 6.97663 94.7501 8.29167C94.7501 9.6067 95.2724 10.8679 96.2023 11.7977C97.1322 12.7276 98.3934 13.25 99.7084 13.25C101.023 13.25 102.285 12.7276 103.214 11.7977C104.144 10.8679 104.667 9.6067 104.667 8.29167C104.667 6.97663 104.144 5.71546 103.214 4.7856C102.285 3.85573 101.023 3.33333 99.7084 3.33333Z" fill="white"/>
<mask id="path-3-inside-1" fill="white">
<path d="M139.708 2.75C141.178 2.75 142.588 3.33385 143.627 4.37312C144.666 5.41238 145.25 6.82193 145.25 8.29167C145.25 9.76141 144.666 11.171 143.627 12.2102C142.588 13.2495 141.178 13.8333 139.708 13.8333C138.239 13.8333 136.829 13.2495 135.79 12.2102C134.751 11.171 134.167 9.76141 134.167 8.29167C134.167 6.82193 134.751 5.41238 135.79 4.37312C136.829 3.33385 138.239 2.75 139.708 2.75ZM139.708 3.33333C138.393 3.33333 137.132 3.85573 136.202 4.7856C135.272 5.71546 134.75 6.97663 134.75 8.29167C134.75 9.6067 135.272 10.8679 136.202 11.7977C137.132 12.7276 138.393 13.25 139.708 13.25C141.023 13.25 142.285 12.7276 143.214 11.7977C144.144 10.8679 144.667 9.6067 144.667 8.29167C144.667 6.97663 144.144 5.71546 143.214 4.7856C142.285 3.85573 141.023 3.33333 139.708 3.33333Z"/>
</mask>
<path d="M139.708 2.75C141.178 2.75 142.588 3.33385 143.627 4.37312C144.666 5.41238 145.25 6.82193 145.25 8.29167C145.25 9.76141 144.666 11.171 143.627 12.2102C142.588 13.2495 141.178 13.8333 139.708 13.8333C138.239 13.8333 136.829 13.2495 135.79 12.2102C134.751 11.171 134.167 9.76141 134.167 8.29167C134.167 6.82193 134.751 5.41238 135.79 4.37312C136.829 3.33385 138.239 2.75 139.708 2.75ZM139.708 3.33333C138.393 3.33333 137.132 3.85573 136.202 4.7856C135.272 5.71546 134.75 6.97663 134.75 8.29167C134.75 9.6067 135.272 10.8679 136.202 11.7977C137.132 12.7276 138.393 13.25 139.708 13.25C141.023 13.25 142.285 12.7276 143.214 11.7977C144.144 10.8679 144.667 9.6067 144.667 8.29167C144.667 6.97663 144.144 5.71546 143.214 4.7856C142.285 3.85573 141.023 3.33333 139.708 3.33333Z" fill="white"/>
<path d="M145.25 8.29167H146.25H145.25ZM139.708 13.8333V14.8333V13.8333ZM134.167 8.29167H133.167H134.167ZM139.708 3.33333V2.33333V3.33333ZM134.75 8.29167H133.75H134.75ZM139.708 13.25V12.25V13.25ZM139.708 3.75C140.913 3.75 142.068 4.2285 142.92 5.08022L144.334 3.66601C143.107 2.43921 141.443 1.75 139.708 1.75V3.75ZM142.92 5.08022C143.772 5.93195 144.25 7.08714 144.25 8.29167H146.25C146.25 6.55671 145.561 4.89281 144.334 3.66601L142.92 5.08022ZM144.25 8.29167C144.25 9.49619 143.772 10.6514 142.92 11.5031L144.334 12.9173C145.561 11.6905 146.25 10.0266 146.25 8.29167H144.25ZM142.92 11.5031C142.068 12.3548 140.913 12.8333 139.708 12.8333V14.8333C141.443 14.8333 143.107 14.1441 144.334 12.9173L142.92 11.5031ZM139.708 12.8333C138.504 12.8333 137.349 12.3548 136.497 11.5031L135.083 12.9173C136.31 14.1441 137.973 14.8333 139.708 14.8333V12.8333ZM136.497 11.5031C135.645 10.6514 135.167 9.49619 135.167 8.29167H133.167C133.167 10.0266 133.856 11.6905 135.083 12.9173L136.497 11.5031ZM135.167 8.29167C135.167 7.08714 135.645 5.93195 136.497 5.08022L135.083 3.66601C133.856 4.89281 133.167 6.55671 133.167 8.29167H135.167ZM136.497 5.08022C137.349 4.2285 138.504 3.75 139.708 3.75V1.75C137.973 1.75 136.31 2.43921 135.083 3.66601L136.497 5.08022ZM139.708 2.33333C138.128 2.33333 136.613 2.96108 135.495 4.07849L136.909 5.4927C137.652 4.75037 138.659 4.33333 139.708 4.33333V2.33333ZM135.495 4.07849C134.378 5.19589 133.75 6.71142 133.75 8.29167H135.75C135.75 7.24185 136.167 6.23503 136.909 5.4927L135.495 4.07849ZM133.75 8.29167C133.75 9.87191 134.378 11.3874 135.495 12.5048L136.909 11.0906C136.167 10.3483 135.75 9.34148 135.75 8.29167H133.75ZM135.495 12.5048C136.613 13.6222 138.128 14.25 139.708 14.25V12.25C138.659 12.25 137.652 11.833 136.909 11.0906L135.495 12.5048ZM139.708 14.25C141.289 14.25 142.804 13.6222 143.922 12.5048L142.507 11.0906C141.765 11.833 140.758 12.25 139.708 12.25V14.25ZM143.922 12.5048C145.039 11.3874 145.667 9.87191 145.667 8.29167H143.667C143.667 9.34148 143.25 10.3483 142.507 11.0906L143.922 12.5048ZM145.667 8.29167C145.667 6.71142 145.039 5.19589 143.922 4.07849L142.507 5.4927C143.25 6.23503 143.667 7.24185 143.667 8.29167H145.667ZM143.922 4.07849C142.804 2.96108 141.289 2.33333 139.708 2.33333V4.33333C140.758 4.33333 141.765 4.75037 142.507 5.4927L143.922 4.07849Z" fill="white" mask="url(#path-3-inside-1)"/>
<path d="M8.70823 2.75C10.178 2.75 11.5875 3.33385 12.6268 4.37312C13.666 5.41238 14.2499 6.82193 14.2499 8.29167C14.2499 9.76141 13.666 11.171 12.6268 12.2102C11.5875 13.2495 10.178 13.8333 8.70823 13.8333C7.23849 13.8333 5.82895 13.2495 4.78968 12.2102C3.75042 11.171 3.16656 9.76141 3.16656 8.29167C3.16656 6.82193 3.75042 5.41238 4.78968 4.37312C5.82895 3.33385 7.23849 2.75 8.70823 2.75ZM8.70823 3.33333C7.3932 3.33333 6.13203 3.85573 5.20216 4.7856C4.27229 5.71546 3.7499 6.97663 3.7499 8.29167C3.7499 9.6067 4.27229 10.8679 5.20216 11.7977C6.13203 12.7276 7.3932 13.25 8.70823 13.25C10.0233 13.25 11.2844 12.7276 12.2143 11.7977C13.1442 10.8679 13.6666 9.6067 13.6666 8.29167C13.6666 6.97663 13.1442 5.71546 12.2143 4.7856C11.2844 3.85573 10.0233 3.33333 8.70823 3.33333Z" fill="url(#paint0_angular)" stroke="url(#paint1_angular)" stroke-width="5"/>
<defs>
<radialGradient id="paint0_angular" cx="0" cy="0" r="1" gradientUnits="userSpaceOnUse" gradientTransform="translate(8.18323 10.8106) rotate(80.1469) scale(3.06798 4.05027)">
<stop offset="0.189236" stop-color="#FDF5A6"/>
<stop offset="0.502742" stop-color="#B88746"/>
</radialGradient>
<radialGradient id="paint1_angular" cx="0" cy="0" r="1" gradientUnits="userSpaceOnUse" gradientTransform="translate(8.18323 10.8106) rotate(80.1469) scale(3.06798 4.05027)">
<stop offset="0.189236" stop-color="#FDF5A6"/>
<stop offset="0.502742" stop-color="#B88746"/>
</radialGradient>
</defs>
</svg>
