<svg width="1920" height="443" viewBox="0 0 1920 443" fill="none" xmlns="http://www.w3.org/2000/svg">
<g clip-path="url(#clip0)">
<rect x="-73" y="173.5" width="170" height="96" rx="16" fill="white"/>
<g clip-path="url(#clip1)">
<path d="M-9.47378 228.179C-9.63535 227.789 -9.78682 227.379 -9.94839 227.029L-10.6956 225.359L-10.7259 225.329C-12.9475 220.529 -15.3205 215.649 -17.835 210.849L-17.9359 210.649C-18.1884 210.179 -18.4408 209.659 -18.7034 209.179C-19.0265 208.609 -19.3396 207.999 -19.8546 207.419C-20.3566 206.812 -20.9883 206.323 -21.7043 205.988C-22.4203 205.652 -23.2026 205.478 -23.9948 205.478C-24.7869 205.478 -25.5692 205.652 -26.2852 205.988C-27.0012 206.323 -27.633 206.812 -28.135 207.419C-28.6096 207.999 -28.963 208.609 -29.2861 209.179C-29.5386 209.699 -29.791 210.209 -30.0536 210.679L-30.1546 210.879C-32.6286 215.679 -35.042 220.559 -37.2636 225.359L-37.3242 225.419C-37.5463 225.939 -37.8089 226.479 -38.0613 227.059C-38.2229 227.409 -38.3845 227.789 -38.546 228.209C-38.9822 229.309 -39.1215 230.502 -38.9502 231.672C-38.7788 232.841 -38.3028 233.946 -37.5689 234.878C-36.835 235.809 -35.8687 236.535 -34.7651 236.985C-33.6615 237.434 -32.4588 237.591 -31.2754 237.439C-30.141 237.291 -29.0486 236.917 -28.0643 236.339C-26.7515 235.609 -25.4893 234.549 -24.0755 233.019C-22.6618 234.549 -21.3693 235.609 -20.0868 236.349C-18.8535 237.066 -17.4569 237.462 -16.0274 237.499C-14.372 237.506 -12.77 236.919 -11.5171 235.848C-10.2643 234.776 -9.44527 233.292 -9.21123 231.669C-8.94077 230.503 -9.03228 229.283 -9.47378 228.169V228.179ZM-23.9746 229.839C-25.7114 227.639 -26.8424 225.619 -27.2261 223.889C-27.3851 223.248 -27.4194 222.583 -27.3271 221.929C-27.2564 221.419 -27.0646 220.969 -26.802 220.589C-26.1961 219.719 -25.1358 219.179 -23.9746 219.179C-23.4231 219.163 -22.876 219.282 -22.3825 219.526C-21.889 219.77 -21.4645 220.132 -21.1471 220.579C-20.8846 220.979 -20.6927 221.419 -20.6321 221.929C-20.5311 222.509 -20.5715 223.179 -20.7331 223.889C-21.1168 225.589 -22.2478 227.629 -23.9746 229.839ZM-11.1097 231.319C-11.2244 232.143 -11.5551 232.923 -12.0689 233.581C-12.5828 234.239 -13.2617 234.752 -14.0381 235.069C-14.8055 235.389 -15.6538 235.479 -16.4818 235.389C-17.2897 235.289 -18.0975 235.029 -18.9255 234.549C-20.3004 233.708 -21.5366 232.662 -22.5911 231.449C-20.4705 228.849 -19.1881 226.479 -18.7034 224.369C-18.4711 223.369 -18.4408 222.469 -18.5418 221.639C-18.6679 220.852 -18.9642 220.102 -19.4103 219.439C-19.9196 218.72 -20.5995 218.137 -21.39 217.739C-22.1806 217.342 -23.0578 217.142 -23.9443 217.159C-25.8124 217.159 -27.4786 218.019 -28.4884 219.429C-28.943 220.09 -29.2367 220.847 -29.3467 221.639C-29.478 222.479 -29.4477 223.409 -29.1852 224.369C-28.7004 226.479 -27.3877 228.879 -25.2974 231.469C-26.334 232.705 -27.5731 233.76 -28.963 234.589C-29.8011 235.069 -30.5989 235.319 -31.4067 235.419C-32.663 235.579 -33.9321 235.24 -34.938 234.478C-35.944 233.716 -36.6055 232.592 -36.7789 231.349C-36.8799 230.549 -36.8092 229.749 -36.486 228.849C-36.3851 228.529 -36.2336 228.209 -36.072 227.829C-35.8499 227.309 -35.5873 226.769 -35.3349 226.229L-35.2945 226.159C-33.1133 221.389 -30.7302 216.519 -28.2561 211.749L-28.1552 211.549C-27.9027 211.069 -27.6503 210.559 -27.3877 210.079C-27.1252 209.569 -26.8424 209.079 -26.4789 208.679C-26.1642 208.307 -25.771 208.008 -25.327 207.803C-24.883 207.598 -24.3989 207.491 -23.9089 207.491C-23.4189 207.491 -22.9349 207.598 -22.4908 207.803C-22.0468 208.008 -21.6536 208.307 -21.339 208.679C-20.9855 209.079 -20.6927 209.569 -20.4302 210.079C-20.1777 210.559 -19.9253 211.079 -19.6627 211.549L-19.5617 211.749C-17.0978 216.519 -14.7147 221.389 -12.4931 226.159L-12.4628 226.189C-12.2003 226.709 -11.9781 227.289 -11.7256 227.789C-11.5641 228.179 -11.4025 228.489 -11.3015 228.819C-11.1097 229.719 -11.0087 230.519 -11.1097 231.319ZM2.9468 229.619C2.18588 229.63 1.43221 229.471 0.741707 229.155C0.0512047 228.838 -0.558414 228.371 -1.04192 227.789C-2.12841 226.549 -2.70503 224.95 -2.6576 223.309C-2.67423 221.632 -2.07898 220.006 -0.981331 218.729C-0.473602 218.14 0.158424 217.668 0.870251 217.346C1.58208 217.025 2.35639 216.862 3.13867 216.869C3.87474 216.849 4.60386 217.015 5.25745 217.351C5.91105 217.687 6.46766 218.182 6.87494 218.789L6.97592 217.219H9.92455V229.299H6.96582L6.86484 227.539C6.44493 228.188 5.86456 228.719 5.17882 229.084C4.49308 229.448 3.72475 229.632 2.9468 229.619ZM3.71426 226.739C4.29994 226.739 4.81494 226.579 5.29964 226.289C5.74396 225.969 6.10749 225.549 6.39024 225.039C6.64269 224.529 6.77396 223.919 6.77396 223.239C6.81333 222.649 6.69724 222.058 6.43704 221.525C6.17685 220.992 5.78147 220.535 5.28955 220.199C4.81689 219.908 4.27115 219.753 3.71426 219.753C3.15736 219.753 2.61162 219.908 2.13896 220.199C1.69465 220.519 1.33112 220.939 1.04837 221.449C0.781334 222.012 0.649967 222.628 0.664646 223.249C0.625282 223.84 0.741371 224.43 1.00156 224.963C1.26175 225.496 1.65714 225.953 2.14906 226.289C2.62367 226.579 3.13867 226.739 3.71426 226.739ZM14.9736 213.959C14.9736 214.309 14.913 214.629 14.7514 214.889C14.5898 215.139 14.3677 215.369 14.0748 215.529C13.782 215.689 13.469 215.749 13.1458 215.749C12.8227 215.749 12.4995 215.689 12.2067 215.529C11.9297 215.377 11.6968 215.156 11.5301 214.889C11.3738 214.604 11.2971 214.283 11.308 213.959C11.308 213.599 11.3787 213.279 11.5301 213.029C11.6917 212.729 11.924 212.549 12.2067 212.389C12.4995 212.229 12.8126 212.159 13.1458 212.159C13.4673 212.152 13.7851 212.227 14.0683 212.378C14.3515 212.529 14.5904 212.75 14.7615 213.019C14.9085 213.311 14.9813 213.633 14.9736 213.959ZM11.5402 229.259V217.199H14.7514V229.279H11.5301L11.5402 229.259ZM23.3347 220.359V220.399C23.1833 220.329 22.9813 220.299 22.8298 220.269C22.6279 220.229 22.4663 220.229 22.2745 220.229C21.3757 220.229 20.6992 220.489 20.2548 221.029C19.7701 221.579 19.548 222.349 19.548 223.339V229.269H16.3267V217.189H19.2854L19.3864 219.019C19.7095 218.379 20.0933 217.899 20.6386 217.539C21.181 217.189 21.8195 217.015 22.4663 217.039C22.6986 217.039 22.9207 217.059 23.1126 217.099C23.2136 217.129 23.2742 217.129 23.3347 217.159V220.359ZM24.6273 229.259V212.239H27.8385V218.739C28.2929 218.159 28.8079 217.709 29.4542 217.359C30.4773 216.862 31.6396 216.722 32.7535 216.959C33.8674 217.197 34.868 217.799 35.5938 218.669C36.6826 219.912 37.2594 221.515 37.2095 223.159C37.2261 224.836 36.6308 226.462 35.5332 227.739C35.0255 228.329 34.3934 228.801 33.6816 229.122C32.9698 229.443 32.1955 229.606 31.4132 229.599C30.6771 229.619 29.948 229.453 29.2944 229.118C28.6408 228.782 28.0842 228.287 27.6769 227.679L27.5759 229.249L24.6273 229.279V229.259ZM30.8376 226.739C31.4132 226.739 31.9282 226.579 32.4129 226.289C32.8572 225.969 33.2207 225.549 33.5035 225.039C33.766 224.529 33.8872 223.919 33.8872 223.239C33.8872 222.569 33.766 221.959 33.5035 221.449C33.2383 220.957 32.8657 220.53 32.4129 220.199C31.9402 219.908 31.3945 219.753 30.8376 219.753C30.2807 219.753 29.735 219.908 29.2623 220.199C28.8079 220.519 28.4545 220.939 28.1616 221.449C27.8946 222.012 27.7632 222.628 27.7779 223.249C27.7385 223.84 27.8546 224.43 28.1148 224.963C28.375 225.496 28.7704 225.953 29.2623 226.289C29.7369 226.579 30.2519 226.739 30.8376 226.739ZM38.4212 229.269V217.189H41.3799L41.4809 218.759C41.8527 218.157 42.3802 217.665 43.0086 217.333C43.6371 217 44.3438 216.84 45.0556 216.869C45.8696 216.855 46.6697 217.079 47.3558 217.513C48.0419 217.947 48.5836 218.572 48.9131 219.309C49.2665 220.069 49.4584 221.009 49.4584 222.059V229.299H46.2371V222.479C46.2371 221.639 46.0452 220.979 45.6615 220.489C45.2778 220.009 44.7527 219.749 44.0862 219.749C43.6015 219.749 43.1774 219.849 42.8038 220.069C42.4503 220.299 42.1575 220.589 41.9353 220.999C41.7107 221.414 41.5993 221.879 41.6122 222.349V229.269H38.4212ZM51.064 229.269V212.229H54.2852V218.729C54.7216 218.146 55.2892 217.671 55.943 217.343C56.5968 217.015 57.3188 216.843 58.0518 216.839C58.8127 216.828 59.5664 216.987 60.2569 217.304C60.9474 217.621 61.557 218.087 62.0405 218.669C63.1216 219.912 63.6944 221.51 63.6461 223.149C63.6637 224.826 63.0683 226.453 61.9698 227.729C61.4621 228.319 60.8301 228.791 60.1183 229.112C59.4064 229.433 58.6321 229.596 57.8498 229.589C57.1138 229.609 56.3847 229.443 55.7311 229.108C55.0775 228.772 54.5209 228.277 54.1136 227.669L54.0227 229.239L51.064 229.269ZM57.3046 226.739C57.8902 226.739 58.4052 226.579 58.8798 226.289C59.3343 225.969 59.6877 225.549 59.9805 225.039C60.233 224.529 60.3643 223.919 60.3643 223.239C60.4036 222.649 60.2875 222.058 60.0273 221.525C59.7671 220.992 59.3718 220.535 58.8798 220.199C58.4072 219.908 57.8615 219.753 57.3046 219.753C56.7477 219.753 56.2019 219.908 55.7293 220.199C55.2849 220.519 54.9214 220.939 54.6387 221.449C54.3568 222.007 54.2247 222.627 54.2549 223.249C54.2156 223.84 54.3317 224.43 54.5919 224.963C54.8521 225.496 55.2474 225.953 55.7394 226.289C56.214 226.579 56.6987 226.739 57.3046 226.739Z" fill="#FF385C"/>
</g>
</g>
<rect x="402" y="113.5" width="170" height="96" rx="16" fill="white"/>
<g clip-path="url(#clip2)">
<path d="M480.427 161.91C480.427 166.352 476.938 169.625 472.656 169.625C468.374 169.625 464.885 166.352 464.885 161.91C464.885 157.437 468.374 154.196 472.656 154.196C476.938 154.196 480.427 157.437 480.427 161.91ZM477.025 161.91C477.025 159.135 475.003 157.236 472.656 157.236C470.309 157.236 468.287 159.135 468.287 161.91C468.287 164.658 470.309 166.585 472.656 166.585C475.003 166.585 477.025 164.655 477.025 161.91Z" fill="#EA4335"/>
<path d="M497.192 161.91C497.192 166.352 493.703 169.625 489.421 169.625C485.139 169.625 481.65 166.352 481.65 161.91C481.65 157.441 485.139 154.196 489.421 154.196C493.703 154.196 497.192 157.437 497.192 161.91ZM493.79 161.91C493.79 159.135 491.768 157.236 489.421 157.236C487.074 157.236 485.052 159.135 485.052 161.91C485.052 164.658 487.074 166.585 489.421 166.585C491.768 166.585 493.79 164.655 493.79 161.91Z" fill="#FBBC05"/>
<path d="M513.258 154.662V168.512C513.258 174.209 509.884 176.536 505.896 176.536C502.141 176.536 499.881 174.036 499.029 171.99L501.991 170.763C502.518 172.018 503.811 173.5 505.892 173.5C508.445 173.5 510.028 171.931 510.028 168.978V167.869H509.909C509.147 168.804 507.68 169.622 505.829 169.622C501.956 169.622 498.407 166.262 498.407 161.938C498.407 157.583 501.956 154.196 505.829 154.196C507.677 154.196 509.144 155.013 509.909 155.921H510.028V154.665H513.258V154.662ZM510.269 161.938C510.269 159.222 508.449 157.236 506.133 157.236C503.786 157.236 501.82 159.222 501.82 161.938C501.82 164.627 503.786 166.585 506.133 166.585C508.449 166.585 510.269 164.627 510.269 161.938Z" fill="#4285F4"/>
<path d="M518.585 146.543V169.152H515.267V146.543H518.585Z" fill="#34A853"/>
<path d="M531.514 164.45L534.155 166.203C533.303 167.458 531.249 169.622 527.7 169.622C523.3 169.622 520.013 166.234 520.013 161.907C520.013 157.319 523.328 154.192 527.32 154.192C531.34 154.192 533.306 157.378 533.949 159.1L534.302 159.976L523.946 164.248C524.739 165.796 525.972 166.585 527.7 166.585C529.433 166.585 530.634 165.736 531.514 164.45ZM523.387 161.674L530.309 158.811C529.929 157.848 528.783 157.176 527.435 157.176C525.706 157.176 523.3 158.696 523.387 161.674Z" fill="#EA4335"/>
<path d="M452.326 159.904V156.631H463.401C463.509 157.201 463.565 157.876 463.565 158.606C463.565 161.062 462.891 164.098 460.719 166.262C458.605 168.453 455.906 169.622 452.329 169.622C445.7 169.622 440.126 164.244 440.126 157.643C440.126 151.041 445.7 145.664 452.329 145.664C455.996 145.664 458.609 147.097 460.572 148.964L458.253 151.274C456.845 149.959 454.938 148.937 452.326 148.937C447.485 148.937 443.699 152.822 443.699 157.643C443.699 162.464 447.485 166.349 452.326 166.349C455.466 166.349 457.254 165.093 458.399 163.952C459.328 163.027 459.94 161.705 460.181 159.9L452.326 159.904Z" fill="#4285F4"/>
</g>
<rect x="402" y="233.5" width="170" height="96" rx="16" fill="white"/>
<path fill-rule="evenodd" clip-rule="evenodd" d="M503.2 274.81L501.2 271.43L497.65 273.12L495.65 269.73L492.1 271.43L490.11 268.03L486.56 269.73L484.56 266.34L481.01 268.04L479.02 264.64L475.46 266.34L467.93 290.86L477.08 293.66C477.425 292.555 478.153 291.609 479.134 290.994C480.115 290.38 481.284 290.136 482.429 290.307C483.573 290.479 484.619 291.054 485.377 291.93C486.135 292.805 486.554 293.922 486.56 295.08V295.18C486.58 295.62 486.53 296.06 486.4 296.5L495.7 299.35L503.2 274.81Z" fill="#D61920"/>
<path fill-rule="evenodd" clip-rule="evenodd" d="M475.78 288.84C475.549 288.802 475.339 288.682 475.188 288.502C475.038 288.322 474.957 288.094 474.96 287.86V275.86C474.959 275.728 474.984 275.598 475.033 275.476C475.083 275.354 475.157 275.243 475.25 275.15C475.343 275.057 475.454 274.983 475.576 274.933C475.698 274.884 475.828 274.859 475.96 274.86H484.63C485.141 274.859 485.647 274.958 486.119 275.152C486.592 275.347 487.021 275.632 487.384 275.992C487.746 276.353 488.033 276.781 488.23 277.252C488.427 277.724 488.529 278.229 488.53 278.74V287.86C488.53 288.007 488.497 288.153 488.434 288.286C488.371 288.419 488.279 288.536 488.166 288.63C488.052 288.724 487.919 288.791 487.776 288.827C487.634 288.864 487.485 288.868 487.34 288.84C487.111 288.8 486.903 288.679 486.754 288.499C486.606 288.32 486.526 288.093 486.53 287.86V278.75C486.53 278.246 486.33 277.763 485.973 277.406C485.617 277.05 485.134 276.85 484.63 276.85H482.74V287.85C482.741 287.984 482.715 288.117 482.663 288.24C482.612 288.364 482.536 288.476 482.44 288.57C482.326 288.683 482.187 288.766 482.033 288.813C481.88 288.861 481.718 288.87 481.56 288.84C481.329 288.802 481.119 288.682 480.968 288.502C480.818 288.322 480.737 288.094 480.74 287.86V276.85H476.96V287.85C476.961 287.997 476.929 288.143 476.868 288.276C476.806 288.41 476.715 288.528 476.603 288.622C476.49 288.717 476.358 288.785 476.216 288.823C476.073 288.861 475.925 288.866 475.78 288.84ZM490.2 294.07C489.967 294.031 489.756 293.91 489.605 293.728C489.454 293.546 489.374 293.316 489.38 293.08C489.381 292.818 489.485 292.566 489.67 292.38C489.855 292.192 490.106 292.084 490.37 292.08C491.22 292.08 491.95 291.54 492.19 290.73L493.22 287.3L489.85 276.03C489.81 275.904 489.795 275.771 489.806 275.639C489.818 275.508 489.856 275.379 489.917 275.262C489.978 275.145 490.062 275.041 490.164 274.957C490.266 274.872 490.383 274.809 490.51 274.77C490.762 274.7 491.031 274.73 491.262 274.853C491.492 274.975 491.667 275.182 491.75 275.43L494.25 283.83L496.79 275.43C496.91 274.97 497.42 274.66 497.94 274.76L498.01 274.77C498.55 274.94 498.85 275.51 498.69 276.04L495.22 287.6L494.12 291.3C493.873 292.096 493.384 292.795 492.72 293.3C492.045 293.806 491.224 294.08 490.38 294.08C490.32 294.082 490.26 294.079 490.2 294.07Z" fill="#FEFEFE"/>
<path fill-rule="evenodd" clip-rule="evenodd" d="M429.08 286.65H431.04C431.562 286.65 432.064 286.442 432.433 286.073C432.802 285.703 433.01 285.202 433.01 284.68V278.91C433.011 278.651 432.962 278.395 432.864 278.155C432.766 277.916 432.622 277.698 432.44 277.514C432.258 277.33 432.042 277.184 431.803 277.084C431.565 276.983 431.309 276.931 431.05 276.93H429.08V286.63V286.65ZM427.85 288.71C427.61 288.669 427.392 288.544 427.236 288.357C427.08 288.17 426.997 287.933 427 287.69V269.77C426.998 269.633 427.024 269.497 427.075 269.37C427.127 269.243 427.203 269.127 427.3 269.03C427.417 268.908 427.562 268.817 427.723 268.765C427.883 268.713 428.054 268.701 428.22 268.73C428.72 268.83 429.08 269.25 429.08 269.76V274.86H431.04C431.571 274.859 432.098 274.962 432.589 275.165C433.08 275.367 433.527 275.664 433.903 276.04C434.279 276.415 434.578 276.861 434.781 277.352C434.985 277.842 435.09 278.368 435.09 278.9V284.67C435.087 285.741 434.661 286.767 433.904 287.524C433.147 288.281 432.121 288.707 431.05 288.71H428.04C427.973 288.714 427.906 288.71 427.84 288.7L427.85 288.71Z" fill="#333545"/>
<path fill-rule="evenodd" clip-rule="evenodd" d="M442.14 276.85C442.028 276.83 441.914 276.82 441.8 276.82C441.541 276.817 441.283 276.866 441.043 276.964C440.803 277.062 440.584 277.207 440.401 277.391C440.218 277.574 440.073 277.793 439.974 278.033C439.876 278.273 439.827 278.53 439.83 278.79V284.8C439.829 285.059 439.879 285.316 439.977 285.555C440.076 285.795 440.221 286.013 440.404 286.196C440.587 286.379 440.805 286.524 441.045 286.623C441.284 286.721 441.541 286.771 441.8 286.77C442.322 286.77 442.824 286.562 443.193 286.193C443.562 285.823 443.77 285.322 443.77 284.8V278.8C443.77 277.83 443.08 277.02 442.14 276.85ZM441.09 288.8C440.152 288.635 439.303 288.144 438.692 287.414C438.081 286.684 437.747 285.762 437.75 284.81V278.8C437.748 278.268 437.853 277.741 438.057 277.25C438.261 276.759 438.561 276.314 438.94 275.94C439.315 275.565 439.761 275.267 440.252 275.065C440.743 274.862 441.269 274.759 441.8 274.76C442.871 274.76 443.899 275.186 444.657 275.943C445.414 276.701 445.84 277.728 445.84 278.8V284.81C445.84 285.89 445.42 286.91 444.65 287.68C444.276 288.055 443.832 288.352 443.343 288.554C442.854 288.757 442.329 288.861 441.8 288.86C441.562 288.861 441.324 288.841 441.09 288.8ZM452.89 276.86C452.778 276.84 452.664 276.83 452.55 276.83C452.291 276.827 452.033 276.876 451.793 276.974C451.553 277.072 451.334 277.217 451.151 277.401C450.968 277.584 450.823 277.803 450.724 278.043C450.626 278.283 450.577 278.54 450.58 278.8V284.81C450.579 285.069 450.629 285.326 450.727 285.565C450.826 285.805 450.971 286.023 451.154 286.206C451.337 286.389 451.555 286.534 451.795 286.633C452.034 286.731 452.291 286.781 452.55 286.78C452.809 286.781 453.066 286.731 453.305 286.633C453.545 286.534 453.763 286.389 453.946 286.206C454.129 286.023 454.274 285.805 454.373 285.565C454.471 285.326 454.521 285.069 454.52 284.81V278.8C454.52 277.84 453.83 277.03 452.89 276.86ZM451.84 288.8C450.904 288.633 450.057 288.141 449.448 287.411C448.839 286.682 448.507 285.76 448.51 284.81V278.8C448.512 278.211 448.642 277.629 448.891 277.095C449.141 276.561 449.504 276.088 449.956 275.709C450.407 275.33 450.936 275.054 451.505 274.901C452.074 274.747 452.669 274.72 453.25 274.82C454.188 274.982 455.038 275.471 455.651 276.199C456.264 276.927 456.6 277.848 456.6 278.8V284.81C456.601 285.344 456.496 285.873 456.29 286.366C456.084 286.859 455.781 287.306 455.4 287.68C455.026 288.055 454.582 288.352 454.093 288.554C453.604 288.757 453.079 288.861 452.55 288.86C452.31 288.86 452.07 288.84 451.84 288.8ZM460.11 288.84C459.87 288.799 459.652 288.674 459.496 288.487C459.34 288.3 459.257 288.063 459.26 287.82V269.77C459.26 269.49 459.36 269.22 459.56 269.03C459.678 268.913 459.822 268.827 459.981 268.778C460.139 268.73 460.307 268.72 460.47 268.75C460.97 268.83 461.34 269.26 461.34 269.77V280.45L466.12 275.09C466.36 274.83 466.72 274.71 467.08 274.77C467.261 274.8 467.432 274.879 467.572 274.997C467.713 275.115 467.82 275.269 467.881 275.443C467.943 275.617 467.956 275.803 467.921 275.984C467.885 276.165 467.802 276.332 467.68 276.47L464.07 280.5L467.8 287.33C467.867 287.445 467.911 287.573 467.928 287.705C467.945 287.837 467.935 287.971 467.9 288.1C467.861 288.232 467.796 288.356 467.709 288.462C467.621 288.569 467.512 288.656 467.39 288.72C467.178 288.842 466.93 288.884 466.69 288.84C466.541 288.815 466.399 288.757 466.274 288.67C466.15 288.584 466.046 288.471 465.97 288.34L462.61 282.16L461.33 283.57V287.82C461.33 288.096 461.22 288.36 461.025 288.555C460.83 288.75 460.566 288.86 460.29 288.86C460.22 288.86 460.16 288.86 460.09 288.84H460.11ZM505.92 288.83C505.358 288.736 504.823 288.517 504.356 288.19C503.889 287.863 503.501 287.436 503.22 286.94C503.083 286.697 503.047 286.409 503.12 286.14C503.2 285.88 503.37 285.66 503.6 285.52C503.813 285.403 504.061 285.364 504.3 285.41C504.6 285.46 504.87 285.64 505.02 285.91C505.29 286.37 505.72 286.67 506.25 286.76C506.523 286.807 506.804 286.792 507.07 286.716C507.337 286.64 507.583 286.505 507.79 286.32C508.19 285.95 508.39 285.42 508.34 284.9C508.329 284.633 508.255 284.373 508.125 284.14C507.995 283.908 507.811 283.709 507.59 283.56L504.79 281.57C504.334 281.25 503.954 280.833 503.677 280.349C503.401 279.865 503.234 279.326 503.19 278.77C503.154 278.209 503.246 277.648 503.459 277.128C503.672 276.608 504.001 276.144 504.42 275.77C504.829 275.39 505.318 275.105 505.851 274.937C506.383 274.77 506.947 274.723 507.5 274.8C508.68 275 509.64 275.68 510.19 276.64C510.322 276.88 510.357 277.162 510.286 277.426C510.215 277.691 510.045 277.918 509.81 278.06C509.598 278.182 509.35 278.224 509.11 278.18C508.961 278.155 508.819 278.097 508.694 278.01C508.57 277.924 508.466 277.811 508.39 277.68C508.265 277.468 508.094 277.286 507.89 277.148C507.686 277.009 507.453 276.918 507.21 276.88C506.961 276.835 506.705 276.848 506.462 276.92C506.219 276.991 505.995 277.118 505.81 277.29C505.629 277.461 505.488 277.669 505.396 277.901C505.304 278.133 505.265 278.381 505.28 278.63C505.3 279.12 505.58 279.6 506 279.88L508.8 281.83C509.275 282.163 509.668 282.6 509.949 283.107C510.23 283.615 510.391 284.18 510.42 284.76C510.466 285.337 510.377 285.916 510.16 286.453C509.943 286.989 509.604 287.468 509.17 287.85C508.748 288.242 508.243 288.536 507.693 288.709C507.143 288.882 506.561 288.93 505.99 288.85L505.91 288.83H505.92ZM513.95 288.86C513.71 288.818 513.492 288.692 513.335 288.506C513.178 288.32 513.091 288.084 513.09 287.84V269.79C513.089 269.653 513.115 269.517 513.166 269.39C513.218 269.264 513.295 269.148 513.392 269.052C513.488 268.955 513.604 268.878 513.73 268.826C513.857 268.775 513.993 268.749 514.13 268.75L514.33 268.76C514.83 268.86 515.17 269.27 515.17 269.79V274.89H517.14C517.671 274.889 518.197 274.992 518.688 275.195C519.178 275.397 519.624 275.695 520 276.07C520.375 276.446 520.673 276.892 520.875 277.382C521.078 277.873 521.181 278.399 521.18 278.93V287.83C521.181 287.981 521.148 288.13 521.085 288.267C521.022 288.404 520.929 288.526 520.814 288.623C520.698 288.721 520.563 288.791 520.417 288.831C520.271 288.87 520.119 288.876 519.97 288.85C519.47 288.76 519.11 288.33 519.11 287.82V278.92C519.11 278.662 519.059 278.406 518.96 278.168C518.861 277.929 518.715 277.713 518.532 277.53C518.349 277.348 518.132 277.204 517.893 277.106C517.654 277.008 517.398 276.959 517.14 276.96H515.17V287.83C515.171 287.982 515.139 288.132 515.075 288.27C515.011 288.408 514.917 288.53 514.801 288.628C514.684 288.725 514.547 288.796 514.4 288.834C514.253 288.873 514.099 288.878 513.95 288.85V288.86ZM528.23 276.87C527.947 276.818 527.655 276.83 527.377 276.904C527.099 276.978 526.84 277.112 526.619 277.297C526.399 277.483 526.222 277.714 526.101 277.976C525.98 278.237 525.918 278.522 525.92 278.81V284.82C525.919 285.078 525.968 285.334 526.066 285.573C526.164 285.812 526.308 286.029 526.49 286.212C526.673 286.395 526.889 286.541 527.128 286.64C527.366 286.739 527.622 286.79 527.88 286.79C528.4 286.79 528.9 286.59 529.27 286.22C529.455 286.037 529.602 285.819 529.702 285.579C529.801 285.338 529.852 285.08 529.85 284.82V278.8C529.85 277.84 529.17 277.02 528.22 276.86L528.23 276.87ZM527.17 288.79C526.235 288.625 525.388 288.135 524.779 287.407C524.17 286.679 523.837 285.759 523.84 284.81V278.8C523.84 278.21 523.969 277.627 524.218 277.092C524.467 276.557 524.83 276.082 525.282 275.702C525.733 275.322 526.262 275.045 526.832 274.891C527.402 274.737 527.998 274.709 528.58 274.81C529.519 274.973 530.371 275.463 530.984 276.193C531.597 276.923 531.932 277.846 531.93 278.8V284.81C531.93 285.343 531.825 285.87 531.618 286.361C531.412 286.852 531.11 287.297 530.73 287.67C530.271 288.13 529.708 288.473 529.088 288.668C528.468 288.863 527.81 288.905 527.17 288.79Z" fill="#333545"/>
<path fill-rule="evenodd" clip-rule="evenodd" d="M547.9 276.04C547.934 275.913 547.943 275.78 547.926 275.65C547.909 275.519 547.866 275.394 547.8 275.28C547.724 275.158 547.625 275.053 547.509 274.971C547.392 274.889 547.26 274.83 547.12 274.8C546.862 274.751 546.595 274.803 546.374 274.944C546.153 275.085 545.994 275.305 545.93 275.56C545.93 275.61 544.81 280.12 543.93 283.55L543.91 283.62L543.89 283.55L541.89 275.57C541.851 275.375 541.754 275.197 541.611 275.059C541.468 274.921 541.286 274.831 541.09 274.8C541.031 274.788 540.97 274.781 540.91 274.78C540.45 274.78 540.05 275.1 539.92 275.56C539.91 275.61 538.79 280.12 537.92 283.55L537.9 283.62L537.88 283.55C537.03 280.12 535.88 275.61 535.88 275.56C535.833 275.368 535.731 275.195 535.588 275.06C535.444 274.925 535.264 274.835 535.07 274.8C534.904 274.77 534.732 274.783 534.572 274.836C534.411 274.889 534.267 274.981 534.151 275.104C534.034 275.227 533.951 275.377 533.907 275.54C533.863 275.704 533.861 275.875 533.9 276.04L536.91 288.07C536.967 288.29 537.095 288.486 537.273 288.627C537.452 288.768 537.672 288.846 537.9 288.85C538.39 288.85 538.78 288.53 538.88 288.07L540.88 280.08L540.91 280.01L540.93 280.08C541.81 283.55 542.93 288.08 542.93 288.08C542.99 288.296 543.117 288.487 543.293 288.626C543.47 288.764 543.686 288.843 543.91 288.85C544.14 288.857 544.366 288.783 544.547 288.64C544.728 288.497 544.853 288.295 544.9 288.07L547.9 276.04Z" fill="#333545"/>
<rect x="877" y="53.5" width="170" height="96" rx="16" fill="white"/>
<g clip-path="url(#clip3)">
<path d="M944.064 103.475L943.336 105.531H943.276C943.155 105.068 942.932 104.362 942.569 103.516L938.671 93.7404H934.853V109.32H937.378V99.7063C937.378 99.1017 937.378 98.4164 937.358 97.5699C937.337 97.1466 937.297 96.8241 937.277 96.5823H937.337C937.459 97.1869 937.6 97.6303 937.701 97.9125L942.387 109.28H944.165L948.81 97.8117C948.911 97.5497 949.012 97.0257 949.113 96.5823H949.174C949.113 97.7311 949.073 98.759 949.053 99.3838V109.26H951.739V93.7001H948.063L944.064 103.475ZM954.284 98.0939H956.91V109.26H954.284V98.0939ZM955.617 93.3776C955.173 93.3776 954.809 93.5389 954.506 93.821C954.203 94.1032 954.042 94.466 954.042 94.9094C954.042 95.3327 954.203 95.6955 954.506 95.9776C954.809 96.2598 955.173 96.4009 955.617 96.4009C956.062 96.4009 956.445 96.2396 956.728 95.9776C957.031 95.6955 957.193 95.3327 957.193 94.9094C957.193 94.4862 957.031 94.1234 956.728 93.821C956.466 93.5389 956.082 93.3776 955.617 93.3776ZM966.222 97.9931C965.737 97.8924 965.232 97.8319 964.747 97.8319C963.555 97.8319 962.465 98.0939 961.556 98.6179C960.647 99.142 959.92 99.8675 959.455 100.775C958.97 101.702 958.728 102.77 958.728 103.999C958.728 105.068 958.97 106.015 959.435 106.882C959.899 107.728 960.546 108.413 961.414 108.877C962.242 109.34 963.212 109.582 964.303 109.582C965.555 109.582 966.625 109.32 967.474 108.837L967.494 108.816V106.398L967.393 106.478C967.009 106.761 966.565 107.002 966.121 107.144C965.656 107.305 965.232 107.385 964.868 107.385C963.818 107.385 962.99 107.083 962.404 106.418C961.798 105.773 961.495 104.886 961.495 103.778C961.495 102.629 961.798 101.722 962.424 101.057C963.05 100.392 963.878 100.049 964.888 100.049C965.737 100.049 966.605 100.331 967.393 100.895L967.494 100.976V98.4164L967.474 98.3962C967.13 98.2551 966.747 98.0939 966.222 97.9931ZM974.887 97.9125C974.24 97.9125 973.634 98.1141 973.109 98.5373C972.665 98.9001 972.362 99.4241 972.099 100.049H972.079V98.0939H969.453V109.26H972.079V103.556C972.079 102.588 972.281 101.782 972.725 101.198C973.17 100.593 973.735 100.291 974.422 100.291C974.665 100.291 974.907 100.351 975.21 100.392C975.493 100.472 975.695 100.553 975.836 100.654L975.937 100.734V98.1141L975.876 98.0939C975.695 97.973 975.331 97.9125 974.887 97.9125ZM982.037 97.852C980.199 97.852 978.724 98.3962 977.694 99.4644C976.644 100.533 976.139 102.004 976.139 103.858C976.139 105.592 976.664 107.002 977.674 108.03C978.684 109.038 980.058 109.562 981.774 109.562C983.572 109.562 985.006 109.018 986.036 107.93C987.087 106.841 987.592 105.39 987.592 103.596C987.592 101.823 987.107 100.412 986.117 99.3838C985.168 98.3559 983.774 97.852 982.037 97.852ZM984.138 106.438C983.653 107.063 982.885 107.365 981.936 107.365C980.987 107.365 980.219 107.063 979.674 106.398C979.128 105.773 978.866 104.866 978.866 103.717C978.866 102.528 979.149 101.621 979.674 100.976C980.219 100.331 980.967 100.009 981.916 100.009C982.845 100.009 983.572 100.311 984.097 100.936C984.622 101.561 984.905 102.468 984.905 103.657C984.865 104.866 984.643 105.813 984.138 106.438ZM993.449 102.73C992.621 102.387 992.096 102.125 991.854 101.903C991.652 101.702 991.551 101.419 991.551 101.057C991.551 100.754 991.672 100.452 991.975 100.25C992.278 100.049 992.621 99.9482 993.126 99.9482C993.571 99.9482 994.035 100.029 994.479 100.15C994.924 100.271 995.328 100.452 995.651 100.694L995.752 100.775V98.3156L995.691 98.2955C995.388 98.1745 994.984 98.0536 994.5 97.9528C994.015 97.8722 993.571 97.8319 993.207 97.8319C991.955 97.8319 990.924 98.1342 990.117 98.7993C989.309 99.4241 988.925 100.271 988.925 101.258C988.925 101.782 989.006 102.246 989.187 102.629C989.369 103.012 989.632 103.375 989.995 103.677C990.359 103.959 990.884 104.282 991.611 104.584C992.217 104.846 992.682 105.047 992.965 105.209C993.247 105.37 993.429 105.551 993.571 105.692C993.671 105.854 993.732 106.055 993.732 106.317C993.732 107.063 993.167 107.426 992.015 107.426C991.571 107.426 991.106 107.345 990.561 107.164C990.016 106.982 989.511 106.72 989.086 106.418L988.985 106.337V108.897L989.046 108.917C989.43 109.099 989.894 109.219 990.46 109.361C991.025 109.461 991.53 109.542 991.975 109.542C993.328 109.542 994.439 109.24 995.227 108.575C996.035 107.93 996.459 107.103 996.459 106.035C996.459 105.289 996.257 104.624 995.813 104.12C995.227 103.637 994.5 103.133 993.449 102.73ZM1003.39 97.852C1001.55 97.852 1000.07 98.3962 999.044 99.4644C998.014 100.533 997.489 102.004 997.489 103.858C997.489 105.592 998.014 107.002 999.024 108.03C1000.03 109.038 1001.41 109.562 1003.12 109.562C1004.92 109.562 1006.36 109.018 1007.39 107.93C1008.44 106.841 1008.94 105.39 1008.94 103.596C1008.94 101.823 1008.46 100.412 1007.47 99.3838C1006.52 98.3559 1005.12 97.852 1003.39 97.852ZM1005.47 106.438C1004.98 107.063 1004.22 107.365 1003.27 107.365C1002.3 107.365 1001.55 107.063 1001 106.398C1000.46 105.773 1000.2 104.866 1000.2 103.717C1000.2 102.528 1000.48 101.621 1001 100.976C1001.55 100.331 1002.3 100.009 1003.25 100.009C1004.15 100.009 1004.9 100.311 1005.43 100.936C1005.95 101.561 1006.24 102.468 1006.24 103.657C1006.24 104.866 1005.97 105.813 1005.47 106.438ZM1022.98 100.25V98.0939H1020.33V94.7885L1020.25 94.8086L1017.75 95.5544L1017.69 95.5745V98.0939H1013.73V96.6831C1013.73 96.0381 1013.89 95.5342 1014.17 95.2117C1014.46 94.8893 1014.88 94.728 1015.41 94.728C1015.77 94.728 1016.15 94.8086 1016.58 94.99L1016.68 95.0505V92.773L1016.62 92.7528C1016.25 92.6319 1015.77 92.5513 1015.14 92.5513C1014.35 92.5513 1013.67 92.7327 1013.04 93.035C1012.42 93.3776 1011.95 93.8412 1011.61 94.466C1011.26 95.0706 1011.08 95.7559 1011.08 96.542V98.0939H1009.24V100.23H1011.08V109.26H1013.73V100.25H1017.69V105.995C1017.69 108.353 1018.8 109.542 1021.02 109.542C1021.38 109.542 1021.77 109.482 1022.13 109.421C1022.52 109.34 1022.8 109.24 1022.96 109.159L1022.98 109.139V106.982L1022.88 107.063C1022.72 107.164 1022.58 107.244 1022.33 107.305C1022.13 107.365 1021.95 107.385 1021.81 107.385C1021.28 107.385 1020.92 107.264 1020.66 106.962C1020.41 106.68 1020.29 106.216 1020.29 105.531V100.25H1022.98Z" fill="#737373"/>
<path d="M901 88.5H913.382V100.855H901V88.5Z" fill="#F25022"/>
<path d="M914.674 88.5H927.056V100.855H914.674V88.5Z" fill="#7FBA00"/>
<path d="M901 102.145H913.382V114.5H901V102.145Z" fill="#00A4EF"/>
<path d="M914.674 102.145H927.056V114.5H914.674V102.145Z" fill="#FFB900"/>
</g>
<rect x="877" y="173.5" width="170" height="96" rx="16" fill="white"/>
<g clip-path="url(#clip4)">
<path d="M986.364 235.602L994.703 226.366L986.364 217.128H995.163L999.293 221.615L1003.27 217.128H1011.76L1003.46 226.327L1011.88 235.602H1003.04L998.949 231.078L994.894 235.602H986.364Z" fill="#FF6600"/>
<path d="M986.364 212.986H976.919V217.128H986.364V223.369H976.919V229.098H986.364V235.602H969.976V206.5H986.364V212.986Z" fill="#FF6600"/>
<path d="M963.063 206.5V218.41H962.987C961.457 216.676 959.545 216.073 957.326 216.073C952.781 216.073 949.358 219.119 948.156 223.145C946.786 218.709 943.251 215.99 938.01 215.99C933.754 215.99 930.393 217.873 928.64 220.942V217.128H919.842V212.987H929.443V206.5H912V235.603H919.842V223.369H927.659C927.426 224.268 927.301 225.23 927.301 226.245C927.301 232.316 932.006 236.575 938.01 236.575C943.06 236.575 946.387 234.239 948.147 229.979H941.427C940.517 231.259 939.828 231.639 938.01 231.639C935.903 231.639 934.086 229.826 934.086 227.678H947.77C948.364 232.5 952.174 236.658 957.403 236.658C959.659 236.658 961.724 235.564 962.987 233.718H963.063V235.602H969.977V206.5H963.063ZM934.304 223.456C934.74 221.608 936.195 220.399 938.01 220.399C940.009 220.399 941.39 221.57 941.753 223.456C941.906 223.456 934.304 223.456 934.304 223.456ZM958.868 231.171C956.32 231.171 954.737 228.831 954.737 226.387C954.737 223.775 956.114 221.263 958.868 221.263C961.724 221.263 962.862 223.775 962.862 226.387C962.862 228.864 961.656 231.171 958.868 231.171Z" fill="#652C8F"/>
</g>
<rect x="877" y="293.5" width="170" height="96" rx="16" fill="white"/>
<g clip-path="url(#clip5)">
<path d="M944.705 337.459V339.046H944.753C945.327 338.196 946.278 337.196 948.387 337.196C950.028 337.196 951.287 338.028 951.827 339.285H951.875C952.336 338.649 952.864 338.168 953.456 337.828C954.157 337.424 954.936 337.192 955.918 337.192C958.139 337.192 960.106 338.632 960.106 342.262V349.146H956.719V342.743C956.719 340.903 956.052 339.839 954.666 339.839C953.651 339.839 952.913 340.478 952.632 341.265C952.535 341.535 952.49 341.904 952.49 342.213V349.15H949.103V342.483C949.103 340.921 948.462 339.836 947.095 339.836C946.001 339.836 945.315 340.643 945.034 341.335C944.915 341.63 944.877 341.97 944.877 342.29V349.146H941.487V337.459H944.705ZM977.587 337.459V339.664H977.68C978.302 337.979 979.778 337.196 981.074 337.196C981.4 337.196 981.58 337.22 981.842 337.27V340.331C981.532 340.289 981.243 340.247 980.838 340.247C979.37 340.247 978.347 341.047 978.089 342.3C978.032 342.56 978.014 342.841 978.014 343.164V349.15H974.537V337.459H977.587ZM986.563 333.587V337.266H989.5V340.243H986.563V344.635C986.563 346.057 986.949 346.745 988.095 346.745C988.635 346.745 989.032 346.682 989.376 346.601L989.421 349.069C988.961 349.23 987.979 349.406 986.982 349.406C985.81 349.406 984.832 349.023 984.236 348.43C983.555 347.752 983.24 346.643 983.24 345.063V333.587H986.563ZM939.126 349.146H935.755V333.587H939.126V349.146ZM930.135 344.972C930.135 345.186 930.116 345.411 930.053 345.604C929.791 346.415 928.895 347.099 927.779 347.099C926.846 347.099 926.104 346.604 926.104 345.555C926.104 343.95 927.992 343.505 930.139 343.515V344.972H930.135ZM933.503 342.174C933.503 339.523 932.297 337.196 928.217 337.196C926.123 337.196 924.459 337.747 923.553 338.239L924.216 340.366C925.044 339.875 926.366 339.471 927.618 339.471C929.689 339.467 930.027 340.57 930.027 341.275V341.444C925.512 341.437 922.661 342.901 922.661 345.885C922.661 347.707 924.111 349.413 926.636 349.413C928.191 349.413 929.487 348.834 930.266 347.903H930.341C930.341 347.903 930.858 349.922 933.698 349.15C933.548 348.307 933.499 347.412 933.499 346.334V342.174H933.503ZM905.724 333.587C906.072 335.233 907.061 340.015 907.061 340.015C907.477 341.981 907.859 344.042 908.148 345.671H908.2C908.481 343.94 908.923 342.3 909.395 340.271L911.062 333.587H914.753L916.311 340.443C916.719 342.35 917.045 343.821 917.304 345.593H917.353C917.634 343.803 918.001 342.272 918.402 340.313L919.9 333.587H923.44L919.053 349.146C916.259 349.718 915.187 348.665 914.805 346.994C914.423 345.32 913.674 342.135 913.674 342.135C913.288 340.391 912.988 339.162 912.778 337.371H912.726C912.426 339.144 912.111 340.387 911.647 342.132L909.807 349.15C906.953 349.683 905.964 348.893 905.417 346.748C904.945 344.912 902 333.59 902 333.59H905.724V333.587ZM968.918 344.972C968.918 345.186 968.899 345.411 968.835 345.604C968.573 346.415 967.677 347.099 966.561 347.099C965.628 347.099 964.886 346.604 964.886 345.555C964.886 343.95 966.775 343.505 968.921 343.515V344.972H968.918ZM972.285 342.174C972.285 339.523 971.079 337.196 966.999 337.196C964.905 337.196 963.242 337.747 962.335 338.239L962.998 340.366C963.826 339.875 965.149 339.471 966.4 339.471C968.468 339.467 968.809 340.57 968.809 341.275V341.444C964.298 341.437 961.447 342.901 961.447 345.885C961.447 347.707 962.901 349.413 965.422 349.413C966.973 349.413 968.273 348.834 969.049 347.903H969.127C969.127 347.903 969.644 349.922 972.484 349.15C972.334 348.307 972.285 347.412 972.285 346.334V342.174Z" fill="#041E42"/>
<path d="M1003.17 343.788C1003.5 344.356 1003.48 344.99 1003.12 345.28L996.991 349.499C996.353 349.862 995.397 349.422 994.855 348.502C994.31 347.578 994.407 346.548 995.046 346.185L1001.83 343.084C1002.26 342.922 1002.84 343.219 1003.17 343.788ZM1011.24 343.788C1011.57 343.219 1012.15 342.926 1012.57 343.08L1019.36 346.181C1020 346.544 1020.1 347.574 1019.55 348.498C1019.01 349.418 1018.05 349.855 1017.41 349.495L1011.28 345.276C1010.93 344.99 1010.91 344.352 1011.24 343.788ZM1007.2 346.075C1007.87 346.075 1008.42 346.412 1008.49 346.856L1009.15 354.18C1009.15 354.906 1008.29 355.5 1007.2 355.5C1006.12 355.5 1005.26 354.906 1005.26 354.18L1005.91 346.856C1005.99 346.412 1006.54 346.075 1007.2 346.075ZM1011.28 337.724L1017.41 333.501C1018.05 333.138 1019.01 333.574 1019.55 334.498C1020.1 335.422 1020 336.452 1019.36 336.815L1012.57 339.92C1012.15 340.074 1011.57 339.781 1011.24 339.212C1010.91 338.644 1010.93 338.01 1011.28 337.724ZM1001.83 339.92L995.046 336.815C994.411 336.452 994.314 335.422 994.855 334.498C995.397 333.574 996.356 333.138 996.991 333.501L1003.12 337.724C1003.48 338.006 1003.5 338.644 1003.17 339.212C1002.84 339.781 1002.26 340.074 1001.83 339.92ZM1005.91 336.144L1005.26 328.82C1005.26 328.094 1006.12 327.5 1007.2 327.5C1008.29 327.5 1009.15 328.094 1009.15 328.82L1008.49 336.144C1008.42 336.584 1007.87 336.925 1007.2 336.925C1006.54 336.925 1005.99 336.584 1005.91 336.144ZM1021.21 349.47V349.286H1021.38C1021.44 349.286 1021.47 349.323 1021.47 349.378C1021.47 349.429 1021.44 349.47 1021.38 349.47H1021.21ZM1021.07 349.803C1021.07 349.822 1021.09 349.84 1021.11 349.84H1021.18C1021.2 349.84 1021.22 349.822 1021.22 349.803V349.594H1021.34L1021.43 349.814C1021.44 349.829 1021.45 349.84 1021.46 349.84H1021.55C1021.57 349.84 1021.59 349.814 1021.58 349.789C1021.55 349.723 1021.51 349.653 1021.48 349.583C1021.54 349.565 1021.62 349.51 1021.62 349.378C1021.62 349.239 1021.51 349.158 1021.39 349.158H1021.11C1021.09 349.158 1021.07 349.176 1021.07 349.195V349.803ZM1020.77 349.499C1020.77 349.202 1021.02 348.96 1021.32 348.96C1021.62 348.96 1021.87 349.198 1021.87 349.499C1021.87 349.796 1021.63 350.038 1021.32 350.038C1021.01 350.038 1020.77 349.796 1020.77 349.499ZM1020.64 349.499C1020.64 349.866 1020.94 350.166 1021.32 350.166C1021.69 350.166 1022 349.866 1022 349.499C1022 349.132 1021.69 348.832 1021.32 348.832C1020.94 348.832 1020.64 349.132 1020.64 349.499Z" fill="#FFC124"/>
</g>
<rect x="1352" y="113.5" width="170" height="96" rx="16" fill="white"/>
<path d="M1464.06 176.14C1472.04 176.14 1478.53 169.543 1478.53 161.436C1478.53 153.324 1472.04 146.732 1464.06 146.732C1456.08 146.732 1449.59 153.324 1449.59 161.436C1449.59 169.543 1456.08 176.14 1464.06 176.14ZM1464.06 156.193C1466.91 156.193 1469.22 158.545 1469.22 161.434C1469.22 164.324 1466.91 166.673 1464.06 166.673C1461.22 166.673 1458.9 164.324 1458.9 161.433C1458.9 158.54 1461.22 156.19 1464.06 156.19L1464.06 156.193ZM1409.47 176.14C1417.45 176.14 1423.94 169.543 1423.94 161.436C1423.94 153.324 1417.45 146.732 1409.47 146.732C1401.49 146.732 1395 153.324 1395 161.436C1395 169.543 1401.49 176.14 1409.47 176.14ZM1409.47 156.193C1412.32 156.193 1414.63 158.545 1414.63 161.434C1414.63 164.324 1412.32 166.673 1409.47 166.673C1406.63 166.673 1404.31 164.324 1404.31 161.433C1404.31 158.54 1406.63 156.19 1409.47 156.19V156.193ZM1436.76 155.862L1432.32 146.924H1421.91L1431.63 166.476V175.681H1441.89V166.476L1451.6 146.924H1441.2L1436.76 155.862H1436.76Z" fill="#EE2E24"/>
<rect x="1352" y="233.5" width="170" height="96" rx="16" fill="white"/>
<g clip-path="url(#clip6)">
<path fill-rule="evenodd" clip-rule="evenodd" d="M1474.38 280.341L1468.14 291.175L1462.82 291.196L1474.38 270.804L1485.89 291.196H1480.49L1474.38 280.34V280.341ZM1457.58 286.48H1463.54L1460.77 291.196H1453.01L1453.03 285.454V270.929H1457.6L1457.58 286.48H1457.58ZM1441.24 270.93C1446.92 270.951 1451.52 275.478 1451.49 281.073C1451.47 286.648 1446.88 291.175 1441.19 291.175C1435.53 291.154 1430.93 286.628 1430.93 281.031C1430.95 275.456 1435.55 270.93 1441.24 270.93ZM1441.21 286.46C1444.26 286.46 1446.7 284.049 1446.7 281.073C1446.73 278.098 1444.26 275.666 1441.24 275.666C1438.21 275.645 1435.74 278.077 1435.74 281.053C1435.72 284.028 1438.19 286.46 1441.21 286.46H1441.21ZM1422.46 279.463C1422.4 278.624 1422.18 277.513 1421.86 276.446C1421.21 274.24 1420.07 272.212 1418.52 270.514C1417.71 269.634 1416.8 268.816 1415.44 267.852C1414.4 267.335 1413.37 266.783 1412.37 266.197C1411.71 265.82 1410.92 265.357 1409.88 265.023C1408.65 264.729 1407.38 264.567 1406.11 264.541C1404.88 264.499 1403.64 264.605 1402.45 264.835C1401.2 265.044 1400.15 265.379 1398.77 265.714C1395.64 267.077 1393.21 269.13 1391.13 271.856C1383.85 282.103 1390.43 296.46 1402.58 298.157C1404.58 298.43 1406.58 298.325 1408.48 297.885L1409.82 297.529C1409.86 297.508 1409.92 297.486 1409.97 297.486L1411.5 296.9C1411.58 296.857 1411.65 296.836 1411.73 296.795L1412.37 296.501C1413.6 295.892 1414.75 295.139 1415.8 294.26C1414.84 295.136 1413.8 295.915 1412.69 296.585L1412.75 296.628C1412.97 296.564 1413.16 296.501 1413.37 296.46C1413.37 296.46 1413.37 296.795 1413.33 296.732C1412.99 296.984 1413.52 296.753 1414.2 296.396C1414.88 296.04 1415.54 295.599 1416.14 295.097C1417.01 294.364 1417.78 293.567 1418.86 292.268C1419.97 290.319 1421.35 288.621 1421.99 286.336C1422.21 285.729 1422.4 285.017 1422.53 284.283C1422.65 283.55 1422.74 282.795 1422.74 282.02C1422.72 281.244 1422.63 280.447 1422.46 279.463ZM1406.71 296.691C1410.43 296.103 1413.56 294.029 1416.12 291.2C1416.82 290.172 1417.37 289.229 1418.05 288.202C1418.91 286.106 1418.84 284.241 1419.12 282.922C1419.46 280.531 1418.65 278.604 1417.97 276.55C1416.93 274.16 1415.54 272.379 1413.12 270.996C1406.99 267.182 1398.64 268.25 1394.66 273.951C1394.64 273.951 1394.53 274.098 1394.32 274.391C1394.6 273.218 1395.3 272.526 1396 271.855C1398.09 270.137 1400.52 268.773 1403.28 268.104C1406.41 267.768 1409.52 268.104 1412.31 269.466C1416.48 271.855 1419.25 275.607 1419.95 280.049V284.157C1419.08 290.885 1413.33 295.999 1406.71 296.691ZM1422.01 281.391C1421.86 271.541 1412.14 264.897 1402.67 266.239C1399.9 266.93 1396.87 268.313 1394.73 270.242C1393.68 270.932 1393.19 272.212 1392.15 273.238C1387.98 279.379 1388.7 287.239 1393.89 292.018C1394.56 292.682 1395.27 293.298 1396.02 293.862C1391.68 291.241 1389.72 287.279 1389.04 282.46C1389.04 280.741 1389.38 279.043 1389.74 277.325C1392.17 269.801 1399.81 264.331 1408.14 265.714C1409.52 266.05 1410.9 266.406 1412.31 266.742C1414.05 267.432 1415.78 268.46 1417.16 269.823C1418.55 271.184 1419.59 272.903 1420.63 274.6C1421.33 275.963 1421.68 277.681 1422.02 279.043C1422.08 279.819 1422.08 280.616 1422.02 281.392L1422.01 281.391Z" fill="black"/>
<path fill-rule="evenodd" clip-rule="evenodd" d="M1413.37 281.538C1413.37 285.772 1409.84 289.209 1405.48 289.209C1401.11 289.209 1397.58 285.772 1397.58 281.538C1397.58 277.305 1401.11 273.868 1405.48 273.868C1409.84 273.868 1413.37 277.305 1413.37 281.539V281.538Z" fill="white"/>
<path fill-rule="evenodd" clip-rule="evenodd" d="M1413.42 280.239C1413.31 279.652 1413.14 279.191 1412.97 278.542C1412.29 277.116 1411.29 276.006 1409.97 275.062C1405.03 271.773 1398.24 274.937 1397.52 280.554C1397.24 282.776 1398.03 284.914 1399.43 286.549C1399.01 286.108 1398.54 285.648 1398.22 285.123L1398.18 285.165C1398.22 285.291 1398.39 285.375 1398.43 285.5C1398.43 285.5 1398.26 285.5 1398.3 285.479C1398.18 285.333 1398.28 285.564 1398.47 285.877C1398.64 286.192 1398.86 286.486 1399.11 286.758C1399.47 287.157 1399.86 287.512 1400.5 287.995C1401.43 288.476 1402.26 289.105 1403.35 289.398C1403.65 289.483 1403.99 289.566 1404.33 289.629C1404.69 289.693 1405.03 289.714 1405.41 289.714C1405.77 289.714 1406.16 289.671 1406.63 289.586C1407.11 289.529 1407.59 289.431 1408.05 289.294C1409.09 288.978 1410.05 288.434 1410.86 287.701C1411.27 287.324 1411.84 286.842 1412.29 286.213C1412.65 285.501 1412.69 285.144 1412.86 284.83C1413.03 284.515 1413.25 284.159 1413.4 283.677C1413.52 283.105 1413.59 282.523 1413.61 281.938C1413.59 281.351 1413.55 280.785 1413.42 280.24L1413.42 280.239ZM1408.35 276.341C1409.07 276.76 1409.18 276.823 1408.8 276.551C1409.35 276.676 1409.69 276.991 1410.03 277.305C1410.86 278.249 1411.54 279.359 1411.88 280.637C1412.07 282.083 1411.92 283.529 1411.31 284.808C1410.2 286.757 1408.43 288.056 1406.33 288.412C1406.09 288.412 1405.84 288.412 1405.6 288.434C1406.2 288.328 1406.58 287.951 1407.67 287.553C1408.84 287.134 1410.16 285.186 1410.8 284.053C1412.67 280.972 1410.46 278.122 1408.35 276.341ZM1404.35 288.454C1401.11 288.119 1398.62 285.458 1398.28 282.376C1398.58 284.095 1399.6 285.415 1400.98 286.589C1401.47 286.904 1402.2 287.344 1402.69 287.658C1403.52 287.973 1404.01 288.308 1404.82 288.455H1404.35V288.454ZM1413.05 282.859C1412.91 283.509 1412.76 284.137 1412.61 284.787C1412.29 285.584 1411.82 286.401 1411.18 287.05C1410.54 287.701 1409.73 288.203 1408.92 288.685C1408.29 289.02 1407.48 289.188 1406.82 289.355C1406.43 289.397 1405.99 289.229 1405.6 289.209C1410.33 289.083 1413.56 284.662 1412.86 280.281C1412.52 279.003 1411.84 277.892 1411.01 276.781C1410.67 276.299 1410.01 276.006 1409.52 275.523C1406.56 273.659 1402.65 274.036 1400.41 276.488C1400.1 276.81 1399.8 277.153 1399.54 277.514C1400.73 275.754 1402.65 274.518 1404.94 274.161C1405.75 274.14 1406.58 274.288 1407.39 274.434C1410.97 275.523 1413.63 279.003 1413.05 282.86V282.859Z" fill="#D7DF23"/>
</g>
<g clip-path="url(#clip7)" filter="url(#filter0_d)">
<g filter="url(#filter1_d)">
<rect x="1827" y="173.5" width="170" height="96" rx="16" fill="white"/>
</g>
<g clip-path="url(#clip8)">
<path fill-rule="evenodd" clip-rule="evenodd" d="M1924.9 230.525C1918.91 235.073 1910.24 237.5 1902.77 237.5C1892.3 237.5 1882.87 233.506 1875.73 226.864C1875.17 226.342 1875.67 225.63 1876.35 226.037C1884.05 230.654 1893.56 233.432 1903.4 233.432C1910.03 233.432 1917.32 232.018 1924.03 229.083C1925.04 228.639 1925.89 229.767 1924.9 230.525Z" fill="#FF9900"/>
<path fill-rule="evenodd" clip-rule="evenodd" d="M1927.39 227.59C1926.63 226.582 1922.33 227.114 1920.4 227.349C1919.82 227.423 1919.73 226.896 1920.25 226.517C1923.68 224.035 1929.29 224.752 1929.94 225.584C1930.6 226.42 1929.77 232.221 1926.56 234.99C1926.07 235.415 1925.59 235.189 1925.81 234.625C1926.54 232.767 1928.15 228.602 1927.39 227.59Z" fill="#FF9900"/>
<path fill-rule="evenodd" clip-rule="evenodd" d="M1920.54 208.994V206.582C1920.54 206.216 1920.81 205.971 1921.13 205.971H1931.61C1931.94 205.971 1932.21 206.221 1932.21 206.582V208.648C1932.21 208.994 1931.93 209.447 1931.42 210.164L1925.99 218.156C1928.01 218.105 1930.14 218.415 1931.97 219.478C1932.38 219.718 1932.49 220.069 1932.53 220.416V222.991C1932.53 223.342 1932.15 223.753 1931.75 223.541C1928.53 221.798 1924.25 221.609 1920.68 223.559C1920.32 223.763 1919.94 223.356 1919.94 223.005V220.559C1919.94 220.166 1919.95 219.496 1920.33 218.9L1926.62 209.6H1921.14C1920.81 209.6 1920.54 209.355 1920.54 208.994Z" fill="black"/>
<path fill-rule="evenodd" clip-rule="evenodd" d="M1882.31 224.049H1879.13C1878.82 224.026 1878.58 223.79 1878.56 223.49V206.623C1878.56 206.286 1878.83 206.018 1879.17 206.018H1882.14C1882.45 206.032 1882.7 206.277 1882.72 206.582V208.787H1882.78C1883.56 206.656 1885.01 205.662 1886.98 205.662C1888.97 205.662 1890.22 206.656 1891.12 208.787C1891.89 206.656 1893.64 205.662 1895.52 205.662C1896.85 205.662 1898.32 206.23 1899.21 207.506C1900.22 208.925 1900.01 210.987 1900.01 212.794L1900.01 223.439C1900.01 223.777 1899.73 224.049 1899.39 224.049H1896.21C1895.89 224.026 1895.64 223.763 1895.64 223.439V214.5C1895.64 213.788 1895.7 212.013 1895.55 211.338C1895.31 210.206 1894.6 209.887 1893.67 209.887C1892.9 209.887 1892.09 210.418 1891.77 211.269C1891.44 212.119 1891.47 213.543 1891.47 214.5V223.439C1891.47 223.777 1891.2 224.049 1890.86 224.049H1887.67C1887.35 224.026 1887.1 223.763 1887.1 223.439L1887.09 214.5C1887.09 212.618 1887.39 209.85 1885.13 209.85C1882.84 209.85 1882.93 212.549 1882.93 214.5V223.439C1882.93 223.777 1882.66 224.049 1882.31 224.049" fill="black"/>
<path fill-rule="evenodd" clip-rule="evenodd" d="M1912.18 215.993C1912.18 217.273 1912.22 218.341 1911.59 219.478C1911.08 220.402 1910.27 220.971 1909.38 220.971C1908.16 220.971 1907.44 220.009 1907.44 218.59C1907.44 215.789 1909.87 215.281 1912.18 215.281V215.993ZM1915.4 224.003C1915.19 224.197 1914.88 224.211 1914.65 224.082C1913.59 223.176 1913.39 222.755 1912.82 221.891C1911.07 223.73 1909.83 224.28 1907.56 224.28C1904.88 224.28 1902.79 222.575 1902.79 219.159C1902.79 216.492 1904.19 214.675 1906.19 213.788C1907.92 213.002 1910.34 212.863 1912.18 212.646V212.221C1912.18 211.44 1912.24 210.515 1911.79 209.84C1911.41 209.235 1910.66 208.985 1910.01 208.985C1908.79 208.985 1907.71 209.628 1907.44 210.959C1907.39 211.255 1907.18 211.546 1906.89 211.56L1903.8 211.218C1903.54 211.158 1903.25 210.94 1903.32 210.529C1904.03 206.665 1907.42 205.5 1910.45 205.5C1912 205.5 1914.03 205.925 1915.26 207.136C1916.81 208.629 1916.66 210.621 1916.66 212.789V217.911C1916.66 219.45 1917.28 220.125 1917.86 220.957C1918.06 221.253 1918.11 221.609 1917.85 221.83C1917.2 222.39 1916.04 223.43 1915.4 224.012L1915.4 224.003" fill="black"/>
<path fill-rule="evenodd" clip-rule="evenodd" d="M1870.39 215.993C1870.39 217.273 1870.42 218.341 1869.8 219.478C1869.29 220.402 1868.49 220.971 1867.59 220.971C1866.37 220.971 1865.65 220.01 1865.65 218.591C1865.65 215.789 1868.09 215.281 1870.39 215.281V215.993ZM1873.61 224.003C1873.4 224.197 1873.09 224.211 1872.85 224.082C1871.8 223.176 1871.61 222.755 1871.03 221.891C1869.28 223.73 1868.04 224.281 1865.77 224.281C1863.09 224.281 1861 222.575 1861 219.159C1861 216.492 1862.4 214.675 1864.4 213.788C1866.13 213.002 1868.55 212.864 1870.39 212.646V212.221C1870.39 211.44 1870.45 210.515 1870.01 209.841C1869.62 209.235 1868.87 208.985 1868.22 208.985C1867 208.985 1865.92 209.628 1865.65 210.959C1865.6 211.255 1865.39 211.546 1865.1 211.56L1862.01 211.218C1861.75 211.158 1861.46 210.941 1861.53 210.529C1862.25 206.665 1865.63 205.5 1868.66 205.5C1870.21 205.5 1872.24 205.925 1873.46 207.137C1875.02 208.63 1874.87 210.622 1874.87 212.79V217.911C1874.87 219.45 1875.49 220.125 1876.07 220.957C1876.28 221.253 1876.32 221.609 1876.06 221.831C1875.41 222.39 1874.25 223.43 1873.62 224.012L1873.61 224.003" fill="black"/>
</g>
</g>
<defs>
<filter id="filter0_d" x="1823" y="173.5" width="178" height="104" filterUnits="userSpaceOnUse" color-interpolation-filters="sRGB">
<feFlood flood-opacity="0" result="BackgroundImageFix"/>
<feColorMatrix in="SourceAlpha" type="matrix" values="0 0 0 0 0 0 0 0 0 0 0 0 0 0 0 0 0 0 127 0" result="hardAlpha"/>
<feOffset dy="4"/>
<feGaussianBlur stdDeviation="2"/>
<feComposite in2="hardAlpha" operator="out"/>
<feColorMatrix type="matrix" values="0 0 0 0 0 0 0 0 0 0 0 0 0 0 0 0 0 0 0.25 0"/>
<feBlend mode="normal" in2="BackgroundImageFix" result="effect1_dropShadow"/>
<feBlend mode="normal" in="SourceGraphic" in2="effect1_dropShadow" result="shape"/>
</filter>
<filter id="filter1_d" x="1787" y="163.5" width="250" height="176" filterUnits="userSpaceOnUse" color-interpolation-filters="sRGB">
<feFlood flood-opacity="0" result="BackgroundImageFix"/>
<feColorMatrix in="SourceAlpha" type="matrix" values="0 0 0 0 0 0 0 0 0 0 0 0 0 0 0 0 0 0 127 0" result="hardAlpha"/>
<feOffset dy="30"/>
<feGaussianBlur stdDeviation="20"/>
<feColorMatrix type="matrix" values="0 0 0 0 0.831373 0 0 0 0 0.85098 0 0 0 0 0.909804 0 0 0 0.2 0"/>
<feBlend mode="normal" in2="BackgroundImageFix" result="effect1_dropShadow"/>
<feBlend mode="normal" in="SourceGraphic" in2="effect1_dropShadow" result="shape"/>
</filter>
<clipPath id="clip0">
<rect width="170" height="96" fill="white" transform="translate(-73 173.5)"/>
</clipPath>
<clipPath id="clip1">
<rect width="103" height="32" fill="white" transform="translate(-39 205.5)"/>
</clipPath>
<clipPath id="clip2">
<rect width="95" height="32" fill="white" transform="translate(440 145.5)"/>
</clipPath>
<clipPath id="clip3">
<rect width="122" height="26" fill="white" transform="translate(901 88.5)"/>
</clipPath>
<clipPath id="clip4">
<rect width="100" height="30" fill="white" transform="translate(912 206.5)"/>
</clipPath>
<clipPath id="clip5">
<rect width="120" height="28" fill="white" transform="translate(902 327.5)"/>
</clipPath>
<clipPath id="clip6">
<rect width="98" height="34" fill="white" transform="translate(1388 264.5)"/>
</clipPath>
<clipPath id="clip7">
<rect width="170" height="96" fill="white" transform="translate(1827 173.5)"/>
</clipPath>
<clipPath id="clip8">
<rect width="103" height="32" fill="white" transform="translate(1861 205.5)"/>
</clipPath>
</defs>
</svg>
